<?xml version="1.0" encoding="UTF-8"?><svg id="Layer_1" xmlns="http://www.w3.org/2000/svg" viewBox="0 0 800 800"><defs><style>.cls-1{fill:#fff;}</style></defs><path class="cls-1" d="m755.95,61.81h-42.08c-5.81,0-10.52,4.71-10.52,10.52v62.25h-22.23v-58.57c4.7-1.05,8.22-5.24,8.22-10.26V10.52c0-5.81-4.71-10.52-10.52-10.52h-180.65c-5.81,0-10.52,4.71-10.52,10.52v55.23c0,5.02,3.52,9.21,8.22,10.26v58.57h-90.85v-58.31h2.01c5.81,0,10.52-4.71,10.52-10.52V10.52c0-5.81-4.71-10.52-10.52-10.52H131.68c-5.81,0-10.52,4.71-10.52,10.52v55.23c0,5.81,4.71,10.52,10.52,10.52h2.01v58.31h-37.04v-62.25c0-5.81-4.71-10.52-10.52-10.52h-42.08c-5.81,0-10.52,4.71-10.52,10.52v717.14c0,5.81,4.71,10.52,10.52,10.52h42.08c5.81,0,10.52-4.71,10.52-10.52v-72.77h606.7v72.77c0,5.81,4.71,10.52,10.52,10.52h42.08c5.81,0,10.52-4.71,10.52-10.52V72.33c0-5.81-4.71-10.52-10.52-10.52ZM75.61,145.1v633.86h-21.04V82.86h21.04v62.25ZM508.7,21.04h159.6v34.19h-159.6V21.04Zm151.38,55.23v58.31h-143.16v-58.31h143.16ZM142.2,21.04h254.33v34.19h-254.33V21.04h0Zm241.79,55.23v58.31h-229.26v-58.31h229.26ZM96.65,201.96l271.2,93.93-271.2,93.93v-187.87Zm52-4.26h502.7l-251.35,87.06-251.35-87.06Zm502.7,196.38H148.65l251.35-87.06,251.35,87.06Zm52,301.59H96.65v-20.57l1.37-.47h603.96l1.37.47v20.57h0Zm-243.7-176.66h-145.05l.25-.73-176.32-61.07h522.94l-192.87,66.81c-1.85-3-5.16-5-8.95-5Zm181.58,134.58h-183.6v-58.31h2.01c2.49,0,4.77-.87,6.57-2.31l175.01,60.62Zm-444.42-79.35h-2.01v-34.19h254.33v34.19h-252.31Zm239.78,21.04v58.31h-229.26v-58.31h229.26Zm-183.92-76.27h-68.39c-5.81,0-10.52,4.71-10.52,10.52v55.23c0,5.81,4.71,10.52,10.52,10.52h2.01v26.5l-89.64,31.05v-187.87l156.02,54.04Zm-66.38,125.04v9.54h-27.54l27.54-9.54Zm517.06,8.79l-233.18-80.77v-26.34l233.18-80.77v187.87Zm0-216.67H96.65v-21.04h606.7v21.04h0Zm0-46.34l-271.2-93.93,271.2-93.93v187.87h0Zm0-213.17H96.65v-21.04h606.7v21.04h0Zm42.08,602.3h-21.04V82.86h21.04v696.1h0Z"/><rect class="cls-1" x="96.65" y="197.7" width="287.34" height="497.97"/><rect class="cls-1" x="416.01" y="197.7" width="287.34" height="497.97"/></svg>